<svg xmlns="http://www.w3.org/2000/svg" viewBox="0 0 1207.76 1177.927"><path fill="#171516" d="M603.88 0C270.41 0 0 270.35 0 603.87c0 266.81 173.03 493.17 412.97 573.02 30.18 5.59 41.26-13.1 41.26-29.05 0-14.402-.56-61.968-.82-112.43-168 36.528-203.45-71.25-203.45-71.25-27.47-69.8-67.05-88.362-67.05-88.362-54.79-37.48 4.13-36.71 4.13-36.71 60.64 4.256 92.57 62.237 92.57 62.237 53.86 92.316 141.27 65.625 175.73 50.195 5.42-39.023 21.07-65.676 38.34-80.754-134.13-15.26-275.13-67.05-275.13-298.436 0-65.93 23.59-119.8 62.22-162.09-6.27-15.22-26.94-76.63 5.85-159.81 0 0 50.72-16.23 166.11 61.91 48.17-13.39 99.83-20.1 151.15-20.33 51.32.23 103.02 6.94 151.28 20.33 115.26-78.14 165.9-61.91 165.9-61.91 32.87 83.18 12.19 144.59 5.92 159.81 38.73 42.29 62.15 96.16 62.15 162.09 0 231.944-141.27 283.007-275.74 297.96 21.66 18.738 40.96 55.488 40.96 111.832 0 80.797-.7 145.828-.7 165.718 0 16.07 10.87 34.9 41.48 28.97 239.81-79.938 412.63-306.22 412.63-572.94C1207.76 270.35 937.38 0 603.88 0"/><path fill="#171516" d="M228.72 867.028c-1.33 3.008-6.05 3.906-10.35 1.844-4.38-1.973-6.83-6.063-5.42-9.07 1.3-3.087 6.03-3.946 10.4-1.887 4.39 1.972 6.89 6.105 5.37 9.113M253.19 894.313c-2.89 2.664-8.52 1.426-12.34-2.793-3.95-4.21-4.69-9.844-1.77-12.55 2.97-2.665 8.43-1.415 12.39 2.792 3.95 4.258 4.72 9.844 1.72 12.55M276.99 929.087c-3.7 2.578-9.75.168-13.49-5.204-3.7-5.37-3.7-11.816.09-14.394 3.74-2.58 9.7-.255 13.49 5.065 3.69 5.46 3.69 11.907-.09 14.532M309.61 962.688c-3.31 3.652-10.36 2.672-15.52-2.308-5.28-4.872-6.74-11.782-3.43-15.43 3.36-3.66 10.45-2.63 15.64 2.308 5.24 4.864 6.84 11.82 3.31 15.43M354.61 982.2c-1.46 4.73-8.25 6.88-15.09 4.87-6.83-2.07-11.3-7.608-9.92-12.39 1.42-4.76 8.24-7 15.13-4.85 6.82 2.06 11.3 7.56 9.88 12.37M404.04 985.82c.16 4.98-5.64 9.11-12.82 9.2-7.21.16-13.06-3.87-13.14-8.77 0-5.03 5.67-9.12 12.89-9.242 7.18-.136 13.07 3.864 13.07 8.813M450.02 977.99c.86 4.858-4.13 9.85-11.26 11.18-7.01 1.28-13.49-1.72-14.39-6.54-.87-4.98 4.21-9.97 11.21-11.258 7.14-1.242 13.53 1.68 14.44 6.617"/></svg>