<svg viewBox="0.5 0.5 18 15" xmlns="http://www.w3.org/2000/svg"><defs><clipPath id="b"><path d="M1.2 1.2v13.6h16.6V1.2zm.467 1.133a.667.667 0 0 1 .666-.666h14.334a.667.667 0 0 1 .666.666v11.334a.667.667 0 0 1-.666.666H2.333a.667.667 0 0 1-.666-.666z"/></clipPath><linearGradient id="a" x2="0" y2="1"><stop stop-color="#3cb579" offset="0"/><stop stop-color="#004a4a" offset="1"/></linearGradient></defs><rect fill="#bfbfbf" x=".5" y=".5" width="18" height="15" rx="1.833"/><rect x="1" y="1" width="17" height="14" rx="1.333"/><rect fill="url(#a)" x="1.2" y="1.2" width="16.6" height="13.6" rx="1.133"/><rect fill="#fff" fill-opacity=".5" clip-path="url(#b)" x="1.2" y="1.2" width="16.6" height="13.6" rx="1.133"/><rect fill-opacity=".5" x="6" y="6" width="7" height="4" rx=".5"/><path fill="#fff" d="M7 8l2-1v2M12 8l-2-1v2"/></svg>