<svg xmlns="http://www.w3.org/2000/svg" viewBox="0 0 273.39 222.18"><path fill="#55ACEE" d="M85.98 222.178c-31.675 0-61.158-9.285-85.98-25.2 4.388.52 8.853.784 13.38.784 26.278 0 50.463-8.967 69.66-24.01-24.545-.453-45.26-16.67-52.396-38.953 3.424.654 6.938 1.005 10.553 1.005 5.114 0 10.07-.685 14.776-1.967-25.659-5.152-44.992-27.822-44.992-54.998 0-.237 0-.47.005-.705 7.563 4.2 16.212 6.724 25.406 7.015-15.05-10.058-24.95-27.226-24.95-46.685 0-10.28 2.764-19.914 7.592-28.198C46.697 44.2 88.025 66.53 134.642 68.87c-.957-4.105-1.454-8.386-1.454-12.782C133.188 25.113 158.302 0 189.278 0c16.133 0 30.71 6.812 40.942 17.713C242.996 15.197 255 10.53 265.837 4.1c-4.188 13.1-13.08 24.09-24.662 31.033 11.346-1.356 22.156-4.37 32.215-8.832-7.52 11.25-17.03 21.128-27.988 29.036.108 2.405.162 4.824.162 7.256 0 74.12-56.416 159.586-159.584 159.586"/></svg>